ISO-10303-21;
HEADER;
/* Generated by software containing ST-Developer
 * from STEP Tools, Inc. (www.steptools.com) 
 */

FILE_DESCRIPTION(
/* description */ (''),
/* implementation_level */ '2;1');

FILE_NAME(
/* name */ 'amoeba_royale_plate.step',
/* time_stamp */ '2026-01-01T19:56:11+01:00',
/* author */ (''),
/* organization */ (''),
/* preprocessor_version */ 'ST-DEVELOPER v20.1',
/* originating_system */ 'Autodesk Translation Framework v14.21.0.0',
/* authorisation */ '');

FILE_SCHEMA (('AUTOMOTIVE_DESIGN { 1 0 10303 214 3 1 1 }'));
ENDSEC;

DATA;
#10=MECHANICAL_DESIGN_GEOMETRIC_PRESENTATION_REPRESENTATION('',(#13,#14,
#15,#16),#1027);
#11=SHAPE_REPRESENTATION_RELATIONSHIP('SRR','None',#1034,#12);
#12=ADVANCED_BREP_SHAPE_REPRESENTATION('',(#17,#18,#19,#20),#1026);
#13=STYLED_ITEM('',(#1043),#17);
#14=STYLED_ITEM('',(#1043),#18);
#15=STYLED_ITEM('',(#1043),#19);
#16=STYLED_ITEM('',(#1043),#20);
#17=MANIFOLD_SOLID_BREP('Corpo1',#622);
#18=MANIFOLD_SOLID_BREP('Corpo1',#623);
#19=MANIFOLD_SOLID_BREP('Corpo1',#624);
#20=MANIFOLD_SOLID_BREP('Corpo1',#625);
#21=CYLINDRICAL_SURFACE('',#645,1.5);
#22=CYLINDRICAL_SURFACE('',#665,1.5);
#23=CYLINDRICAL_SURFACE('',#667,1.5);
#24=CYLINDRICAL_SURFACE('',#671,1.5);
#25=CYLINDRICAL_SURFACE('',#680,1.5);
#26=CIRCLE('',#643,1.5);
#27=CIRCLE('',#646,1.5);
#28=CIRCLE('',#660,1.5);
#29=CIRCLE('',#662,1.5);
#30=CIRCLE('',#668,1.5);
#31=CIRCLE('',#669,1.5);
#32=CIRCLE('',#672,1.5);
#33=CIRCLE('',#673,1.5);
#34=CIRCLE('',#677,1.5);
#35=CIRCLE('',#679,1.5);
#36=FACE_OUTER_BOUND('',#71,.T.);
#37=FACE_OUTER_BOUND('',#72,.T.);
#38=FACE_OUTER_BOUND('',#73,.T.);
#39=FACE_OUTER_BOUND('',#74,.T.);
#40=FACE_OUTER_BOUND('',#75,.T.);
#41=FACE_OUTER_BOUND('',#76,.T.);
#42=FACE_OUTER_BOUND('',#77,.T.);
#43=FACE_OUTER_BOUND('',#78,.T.);
#44=FACE_OUTER_BOUND('',#79,.T.);
#45=FACE_OUTER_BOUND('',#80,.T.);
#46=FACE_OUTER_BOUND('',#81,.T.);
#47=FACE_OUTER_BOUND('',#82,.T.);
#48=FACE_OUTER_BOUND('',#83,.T.);
#49=FACE_OUTER_BOUND('',#84,.T.);
#50=FACE_OUTER_BOUND('',#85,.T.);
#51=FACE_OUTER_BOUND('',#86,.T.);
#52=FACE_OUTER_BOUND('',#87,.T.);
#53=FACE_OUTER_BOUND('',#88,.T.);
#54=FACE_OUTER_BOUND('',#89,.T.);
#55=FACE_OUTER_BOUND('',#90,.T.);
#56=FACE_OUTER_BOUND('',#91,.T.);
#57=FACE_OUTER_BOUND('',#92,.T.);
#58=FACE_OUTER_BOUND('',#93,.T.);
#59=FACE_OUTER_BOUND('',#94,.T.);
#60=FACE_OUTER_BOUND('',#95,.T.);
#61=FACE_OUTER_BOUND('',#96,.T.);
#62=FACE_OUTER_BOUND('',#97,.T.);
#63=FACE_OUTER_BOUND('',#98,.T.);
#64=FACE_OUTER_BOUND('',#99,.T.);
#65=FACE_OUTER_BOUND('',#100,.T.);
#66=FACE_OUTER_BOUND('',#101,.T.);
#67=FACE_OUTER_BOUND('',#102,.T.);
#68=FACE_OUTER_BOUND('',#103,.T.);
#69=FACE_OUTER_BOUND('',#104,.T.);
#70=FACE_OUTER_BOUND('',#105,.T.);
#71=EDGE_LOOP('',(#391,#392,#393,#394));
#72=EDGE_LOOP('',(#395,#396,#397,#398));
#73=EDGE_LOOP('',(#399,#400,#401,#402,#403,#404));
#74=EDGE_LOOP('',(#405,#406,#407,#408,#409,#410,#411,#412,#413,#414));
#75=EDGE_LOOP('',(#415,#416,#417,#418));
#76=EDGE_LOOP('',(#419,#420,#421,#422));
#77=EDGE_LOOP('',(#423,#424,#425,#426));
#78=EDGE_LOOP('',(#427,#428,#429,#430));
#79=EDGE_LOOP('',(#431,#432,#433,#434));
#80=EDGE_LOOP('',(#435,#436,#437,#438));
#81=EDGE_LOOP('',(#439,#440,#441,#442));
#82=EDGE_LOOP('',(#443,#444,#445,#446));
#83=EDGE_LOOP('',(#447,#448,#449,#450,#451,#452,#453));
#84=EDGE_LOOP('',(#454,#455,#456,#457,#458,#459,#460,#461));
#85=EDGE_LOOP('',(#462,#463,#464,#465));
#86=EDGE_LOOP('',(#466,#467,#468,#469,#470,#471));
#87=EDGE_LOOP('',(#472,#473,#474,#475));
#88=EDGE_LOOP('',(#476,#477,#478,#479,#480,#481,#482,#483,#484,#485,#486,
#487,#488,#489,#490));
#89=EDGE_LOOP('',(#491,#492,#493,#494));
#90=EDGE_LOOP('',(#495,#496,#497,#498));
#91=EDGE_LOOP('',(#499,#500,#501,#502));
#92=EDGE_LOOP('',(#503,#504,#505,#506));
#93=EDGE_LOOP('',(#507,#508,#509,#510));
#94=EDGE_LOOP('',(#511,#512,#513,#514));
#95=EDGE_LOOP('',(#515,#516,#517,#518));
#96=EDGE_LOOP('',(#519,#520,#521,#522));
#97=EDGE_LOOP('',(#523,#524,#525,#526));
#98=EDGE_LOOP('',(#527,#528,#529));
#99=EDGE_LOOP('',(#530,#531,#532));
#100=EDGE_LOOP('',(#533,#534,#535,#536));
#101=EDGE_LOOP('',(#537,#538,#539,#540));
#102=EDGE_LOOP('',(#541,#542,#543,#544));
#103=EDGE_LOOP('',(#545,#546,#547,#548));
#104=EDGE_LOOP('',(#549,#550,#551,#552));
#105=EDGE_LOOP('',(#553,#554,#555,#556));
#106=LINE('',#853,#179);
#107=LINE('',#855,#180);
#108=LINE('',#857,#181);
#109=LINE('',#858,#182);
#110=LINE('',#861,#183);
#111=LINE('',#863,#184);
#112=LINE('',#864,#185);
#113=LINE('',#867,#186);
#114=LINE('',#869,#187);
#115=LINE('',#871,#188);
#116=LINE('',#872,#189);
#117=LINE('',#876,#190);
#118=LINE('',#878,#191);
#119=LINE('',#879,#192);
#120=LINE('',#881,#193);
#121=LINE('',#883,#194);
#122=LINE('',#885,#195);
#123=LINE('',#887,#196);
#124=LINE('',#890,#197);
#125=LINE('',#894,#198);
#126=LINE('',#895,#199);
#127=LINE('',#896,#200);
#128=LINE('',#900,#201);
#129=LINE('',#903,#202);
#130=LINE('',#904,#203);
#131=LINE('',#907,#204);
#132=LINE('',#908,#205);
#133=LINE('',#911,#206);
#134=LINE('',#912,#207);
#135=LINE('',#915,#208);
#136=LINE('',#916,#209);
#137=LINE('',#919,#210);
#138=LINE('',#920,#211);
#139=LINE('',#922,#212);
#140=LINE('',#926,#213);
#141=LINE('',#928,#214);
#142=LINE('',#930,#215);
#143=LINE('',#932,#216);
#144=LINE('',#933,#217);
#145=LINE('',#935,#218);
#146=LINE('',#938,#219);
#147=LINE('',#939,#220);
#148=LINE('',#940,#221);
#149=LINE('',#943,#222);
#150=LINE('',#944,#223);
#151=LINE('',#947,#224);
#152=LINE('',#948,#225);
#153=LINE('',#950,#226);
#154=LINE('',#955,#227);
#155=LINE('',#957,#228);
#156=LINE('',#960,#229);
#157=LINE('',#964,#230);
#158=LINE('',#966,#231);
#159=LINE('',#969,#232);
#160=LINE('',#971,#233);
#161=LINE('',#972,#234);
#162=LINE('',#974,#235);
#163=LINE('',#976,#236);
#164=LINE('',#981,#237);
#165=LINE('',#985,#238);
#166=LINE('',#989,#239);
#167=LINE('',#991,#240);
#168=LINE('',#992,#241);
#169=LINE('',#1003,#242);
#170=LINE('',#1005,#243);
#171=LINE('',#1006,#244);
#172=LINE('',#1012,#245);
#173=LINE('',#1014,#246);
#174=LINE('',#1015,#247);
#175=LINE('',#1017,#248);
#176=LINE('',#1018,#249);
#177=LINE('',#1020,#250);
#178=LINE('',#1022,#251);
#179=VECTOR('',#688,10.);
#180=VECTOR('',#689,10.);
#181=VECTOR('',#690,10.);
#182=VECTOR('',#691,10.);
#183=VECTOR('',#694,10.);
#184=VECTOR('',#695,10.);
#185=VECTOR('',#696,10.);
#186=VECTOR('',#699,10.);
#187=VECTOR('',#700,10.);
#188=VECTOR('',#701,10.);
#189=VECTOR('',#702,10.);
#190=VECTOR('',#705,10.);
#191=VECTOR('',#706,10.);
#192=VECTOR('',#707,10.);
#193=VECTOR('',#708,10.);
#194=VECTOR('',#709,10.);
#195=VECTOR('',#710,10.);
#196=VECTOR('',#711,10.);
#197=VECTOR('',#714,10.);
#198=VECTOR('',#717,10.);
#199=VECTOR('',#718,10.);
#200=VECTOR('',#719,10.);
#201=VECTOR('',#724,10.);
#202=VECTOR('',#727,10.);
#203=VECTOR('',#728,10.);
#204=VECTOR('',#731,10.);
#205=VECTOR('',#732,10.);
#206=VECTOR('',#735,10.);
#207=VECTOR('',#736,10.);
#208=VECTOR('',#739,10.);
#209=VECTOR('',#740,10.);
#210=VECTOR('',#743,10.);
#211=VECTOR('',#744,10.);
#212=VECTOR('',#747,10.);
#213=VECTOR('',#750,10.);
#214=VECTOR('',#751,10.);
#215=VECTOR('',#752,10.);
#216=VECTOR('',#753,10.);
#217=VECTOR('',#754,10.);
#218=VECTOR('',#755,10.);
#219=VECTOR('',#758,10.);
#220=VECTOR('',#759,10.);
#221=VECTOR('',#760,10.);
#222=VECTOR('',#763,10.);
#223=VECTOR('',#764,10.);
#224=VECTOR('',#767,10.);
#225=VECTOR('',#768,10.);
#226=VECTOR('',#771,10.);
#227=VECTOR('',#776,10.);
#228=VECTOR('',#777,10.);
#229=VECTOR('',#780,10.);
#230=VECTOR('',#783,10.);
#231=VECTOR('',#784,10.);
#232=VECTOR('',#787,10.);
#233=VECTOR('',#790,10.);
#234=VECTOR('',#791,10.);
#235=VECTOR('',#794,10.);
#236=VECTOR('',#797,10.);
#237=VECTOR('',#802,10.);
#238=VECTOR('',#805,10.);
#239=VECTOR('',#810,10.);
#240=VECTOR('',#811,10.);
#241=VECTOR('',#812,10.);
#242=VECTOR('',#827,10.);
#243=VECTOR('',#828,10.);
#244=VECTOR('',#829,10.);
#245=VECTOR('',#834,10.);
#246=VECTOR('',#835,10.);
#247=VECTOR('',#836,10.);
#248=VECTOR('',#839,10.);
#249=VECTOR('',#840,10.);
#250=VECTOR('',#843,10.);
#251=VECTOR('',#846,10.);
#252=VERTEX_POINT('',#851);
#253=VERTEX_POINT('',#852);
#254=VERTEX_POINT('',#854);
#255=VERTEX_POINT('',#856);
#256=VERTEX_POINT('',#860);
#257=VERTEX_POINT('',#862);
#258=VERTEX_POINT('',#866);
#259=VERTEX_POINT('',#868);
#260=VERTEX_POINT('',#870);
#261=VERTEX_POINT('',#874);
#262=VERTEX_POINT('',#875);
#263=VERTEX_POINT('',#877);
#264=VERTEX_POINT('',#880);
#265=VERTEX_POINT('',#882);
#266=VERTEX_POINT('',#884);
#267=VERTEX_POINT('',#886);
#268=VERTEX_POINT('',#888);
#269=VERTEX_POINT('',#892);
#270=VERTEX_POINT('',#893);
#271=VERTEX_POINT('',#898);
#272=VERTEX_POINT('',#902);
#273=VERTEX_POINT('',#906);
#274=VERTEX_POINT('',#910);
#275=VERTEX_POINT('',#914);
#276=VERTEX_POINT('',#918);
#277=VERTEX_POINT('',#924);
#278=VERTEX_POINT('',#925);
#279=VERTEX_POINT('',#927);
#280=VERTEX_POINT('',#929);
#281=VERTEX_POINT('',#931);
#282=VERTEX_POINT('',#934);
#283=VERTEX_POINT('',#937);
#284=VERTEX_POINT('',#942);
#285=VERTEX_POINT('',#946);
#286=VERTEX_POINT('',#953);
#287=VERTEX_POINT('',#954);
#288=VERTEX_POINT('',#956);
#289=VERTEX_POINT('',#958);
#290=VERTEX_POINT('',#962);
#291=VERTEX_POINT('',#963);
#292=VERTEX_POINT('',#965);
#293=VERTEX_POINT('',#967);
#294=VERTEX_POINT('',#979);
#295=VERTEX_POINT('',#980);
#296=VERTEX_POINT('',#982);
#297=VERTEX_POINT('',#984);
#298=VERTEX_POINT('',#988);
#299=VERTEX_POINT('',#990);
#300=VERTEX_POINT('',#999);
#301=VERTEX_POINT('',#1000);
#302=VERTEX_POINT('',#1002);
#303=VERTEX_POINT('',#1004);
#304=VERTEX_POINT('',#1008);
#305=VERTEX_POINT('',#1009);
#306=VERTEX_POINT('',#1011);
#307=VERTEX_POINT('',#1013);
#308=EDGE_CURVE('',#252,#253,#106,.T.);
#309=EDGE_CURVE('',#254,#252,#107,.T.);
#310=EDGE_CURVE('',#255,#254,#108,.T.);
#311=EDGE_CURVE('',#255,#253,#109,.T.);
#312=EDGE_CURVE('',#256,#252,#110,.T.);
#313=EDGE_CURVE('',#256,#257,#111,.T.);
#314=EDGE_CURVE('',#254,#257,#112,.T.);
#315=EDGE_CURVE('',#257,#258,#113,.T.);
#316=EDGE_CURVE('',#259,#258,#114,.T.);
#317=EDGE_CURVE('',#260,#259,#115,.T.);
#318=EDGE_CURVE('',#255,#260,#116,.T.);
#319=EDGE_CURVE('',#261,#262,#117,.T.);
#320=EDGE_CURVE('',#262,#263,#118,.T.);
#321=EDGE_CURVE('',#263,#259,#119,.T.);
#322=EDGE_CURVE('',#258,#264,#120,.T.);
#323=EDGE_CURVE('',#264,#265,#121,.T.);
#324=EDGE_CURVE('',#265,#266,#122,.T.);
#325=EDGE_CURVE('',#266,#267,#123,.T.);
#326=EDGE_CURVE('',#267,#268,#26,.T.);
#327=EDGE_CURVE('',#268,#261,#124,.T.);
#328=EDGE_CURVE('',#269,#270,#125,.T.);
#329=EDGE_CURVE('',#269,#261,#126,.T.);
#330=EDGE_CURVE('',#270,#268,#127,.T.);
#331=EDGE_CURVE('',#270,#271,#27,.T.);
#332=EDGE_CURVE('',#271,#267,#128,.T.);
#333=EDGE_CURVE('',#271,#272,#129,.T.);
#334=EDGE_CURVE('',#272,#266,#130,.T.);
#335=EDGE_CURVE('',#272,#273,#131,.T.);
#336=EDGE_CURVE('',#273,#265,#132,.T.);
#337=EDGE_CURVE('',#273,#274,#133,.T.);
#338=EDGE_CURVE('',#274,#264,#134,.T.);
#339=EDGE_CURVE('',#260,#275,#135,.T.);
#340=EDGE_CURVE('',#275,#263,#136,.T.);
#341=EDGE_CURVE('',#275,#276,#137,.T.);
#342=EDGE_CURVE('',#276,#262,#138,.T.);
#343=EDGE_CURVE('',#276,#269,#139,.T.);
#344=EDGE_CURVE('',#277,#278,#140,.T.);
#345=EDGE_CURVE('',#277,#279,#141,.T.);
#346=EDGE_CURVE('',#280,#279,#142,.T.);
#347=EDGE_CURVE('',#281,#280,#143,.T.);
#348=EDGE_CURVE('',#278,#281,#144,.T.);
#349=EDGE_CURVE('',#278,#282,#145,.T.);
#350=EDGE_CURVE('',#256,#283,#146,.T.);
#351=EDGE_CURVE('',#279,#283,#147,.T.);
#352=EDGE_CURVE('',#274,#277,#148,.T.);
#353=EDGE_CURVE('',#284,#280,#149,.T.);
#354=EDGE_CURVE('',#283,#284,#150,.T.);
#355=EDGE_CURVE('',#285,#253,#151,.T.);
#356=EDGE_CURVE('',#285,#284,#152,.T.);
#357=EDGE_CURVE('',#281,#285,#153,.T.);
#358=EDGE_CURVE('',#286,#287,#154,.T.);
#359=EDGE_CURVE('',#287,#288,#155,.T.);
#360=EDGE_CURVE('',#288,#289,#28,.T.);
#361=EDGE_CURVE('',#289,#286,#156,.T.);
#362=EDGE_CURVE('',#290,#291,#157,.T.);
#363=EDGE_CURVE('',#291,#292,#158,.T.);
#364=EDGE_CURVE('',#292,#293,#29,.T.);
#365=EDGE_CURVE('',#293,#290,#159,.T.);
#366=EDGE_CURVE('',#286,#291,#160,.T.);
#367=EDGE_CURVE('',#287,#290,#161,.T.);
#368=EDGE_CURVE('',#289,#292,#162,.T.);
#369=EDGE_CURVE('',#288,#293,#163,.T.);
#370=EDGE_CURVE('',#294,#295,#164,.T.);
#371=EDGE_CURVE('',#294,#296,#30,.T.);
#372=EDGE_CURVE('',#296,#297,#165,.T.);
#373=EDGE_CURVE('',#295,#297,#31,.T.);
#374=EDGE_CURVE('',#296,#298,#166,.T.);
#375=EDGE_CURVE('',#298,#299,#167,.T.);
#376=EDGE_CURVE('',#297,#299,#168,.T.);
#377=EDGE_CURVE('',#299,#295,#32,.T.);
#378=EDGE_CURVE('',#298,#294,#33,.T.);
#379=EDGE_CURVE('',#300,#301,#34,.T.);
#380=EDGE_CURVE('',#301,#302,#169,.T.);
#381=EDGE_CURVE('',#302,#303,#170,.T.);
#382=EDGE_CURVE('',#303,#300,#171,.T.);
#383=EDGE_CURVE('',#304,#305,#35,.T.);
#384=EDGE_CURVE('',#305,#306,#172,.T.);
#385=EDGE_CURVE('',#306,#307,#173,.T.);
#386=EDGE_CURVE('',#307,#304,#174,.T.);
#387=EDGE_CURVE('',#300,#305,#175,.T.);
#388=EDGE_CURVE('',#301,#304,#176,.T.);
#389=EDGE_CURVE('',#303,#306,#177,.T.);
#390=EDGE_CURVE('',#302,#307,#178,.T.);
#391=ORIENTED_EDGE('',*,*,#308,.F.);
#392=ORIENTED_EDGE('',*,*,#309,.F.);
#393=ORIENTED_EDGE('',*,*,#310,.F.);
#394=ORIENTED_EDGE('',*,*,#311,.T.);
#395=ORIENTED_EDGE('',*,*,#312,.F.);
#396=ORIENTED_EDGE('',*,*,#313,.T.);
#397=ORIENTED_EDGE('',*,*,#314,.F.);
#398=ORIENTED_EDGE('',*,*,#309,.T.);
#399=ORIENTED_EDGE('',*,*,#310,.T.);
#400=ORIENTED_EDGE('',*,*,#314,.T.);
#401=ORIENTED_EDGE('',*,*,#315,.T.);
#402=ORIENTED_EDGE('',*,*,#316,.F.);
#403=ORIENTED_EDGE('',*,*,#317,.F.);
#404=ORIENTED_EDGE('',*,*,#318,.F.);
#405=ORIENTED_EDGE('',*,*,#319,.T.);
#406=ORIENTED_EDGE('',*,*,#320,.T.);
#407=ORIENTED_EDGE('',*,*,#321,.T.);
#408=ORIENTED_EDGE('',*,*,#316,.T.);
#409=ORIENTED_EDGE('',*,*,#322,.T.);
#410=ORIENTED_EDGE('',*,*,#323,.T.);
#411=ORIENTED_EDGE('',*,*,#324,.T.);
#412=ORIENTED_EDGE('',*,*,#325,.T.);
#413=ORIENTED_EDGE('',*,*,#326,.T.);
#414=ORIENTED_EDGE('',*,*,#327,.T.);
#415=ORIENTED_EDGE('',*,*,#328,.F.);
#416=ORIENTED_EDGE('',*,*,#329,.T.);
#417=ORIENTED_EDGE('',*,*,#327,.F.);
#418=ORIENTED_EDGE('',*,*,#330,.F.);
#419=ORIENTED_EDGE('',*,*,#331,.F.);
#420=ORIENTED_EDGE('',*,*,#330,.T.);
#421=ORIENTED_EDGE('',*,*,#326,.F.);
#422=ORIENTED_EDGE('',*,*,#332,.F.);
#423=ORIENTED_EDGE('',*,*,#333,.F.);
#424=ORIENTED_EDGE('',*,*,#332,.T.);
#425=ORIENTED_EDGE('',*,*,#325,.F.);
#426=ORIENTED_EDGE('',*,*,#334,.F.);
#427=ORIENTED_EDGE('',*,*,#335,.F.);
#428=ORIENTED_EDGE('',*,*,#334,.T.);
#429=ORIENTED_EDGE('',*,*,#324,.F.);
#430=ORIENTED_EDGE('',*,*,#336,.F.);
#431=ORIENTED_EDGE('',*,*,#337,.F.);
#432=ORIENTED_EDGE('',*,*,#336,.T.);
#433=ORIENTED_EDGE('',*,*,#323,.F.);
#434=ORIENTED_EDGE('',*,*,#338,.F.);
#435=ORIENTED_EDGE('',*,*,#339,.F.);
#436=ORIENTED_EDGE('',*,*,#317,.T.);
#437=ORIENTED_EDGE('',*,*,#321,.F.);
#438=ORIENTED_EDGE('',*,*,#340,.F.);
#439=ORIENTED_EDGE('',*,*,#341,.F.);
#440=ORIENTED_EDGE('',*,*,#340,.T.);
#441=ORIENTED_EDGE('',*,*,#320,.F.);
#442=ORIENTED_EDGE('',*,*,#342,.F.);
#443=ORIENTED_EDGE('',*,*,#343,.F.);
#444=ORIENTED_EDGE('',*,*,#342,.T.);
#445=ORIENTED_EDGE('',*,*,#319,.F.);
#446=ORIENTED_EDGE('',*,*,#329,.F.);
#447=ORIENTED_EDGE('',*,*,#344,.F.);
#448=ORIENTED_EDGE('',*,*,#345,.T.);
#449=ORIENTED_EDGE('',*,*,#346,.F.);
#450=ORIENTED_EDGE('',*,*,#347,.F.);
#451=ORIENTED_EDGE('',*,*,#348,.F.);
#452=ORIENTED_EDGE('',*,*,#349,.T.);
#453=ORIENTED_EDGE('',*,*,#349,.F.);
#454=ORIENTED_EDGE('',*,*,#350,.T.);
#455=ORIENTED_EDGE('',*,*,#351,.F.);
#456=ORIENTED_EDGE('',*,*,#345,.F.);
#457=ORIENTED_EDGE('',*,*,#352,.F.);
#458=ORIENTED_EDGE('',*,*,#338,.T.);
#459=ORIENTED_EDGE('',*,*,#322,.F.);
#460=ORIENTED_EDGE('',*,*,#315,.F.);
#461=ORIENTED_EDGE('',*,*,#313,.F.);
#462=ORIENTED_EDGE('',*,*,#353,.T.);
#463=ORIENTED_EDGE('',*,*,#346,.T.);
#464=ORIENTED_EDGE('',*,*,#351,.T.);
#465=ORIENTED_EDGE('',*,*,#354,.T.);
#466=ORIENTED_EDGE('',*,*,#308,.T.);
#467=ORIENTED_EDGE('',*,*,#355,.F.);
#468=ORIENTED_EDGE('',*,*,#356,.T.);
#469=ORIENTED_EDGE('',*,*,#354,.F.);
#470=ORIENTED_EDGE('',*,*,#350,.F.);
#471=ORIENTED_EDGE('',*,*,#312,.T.);
#472=ORIENTED_EDGE('',*,*,#357,.F.);
#473=ORIENTED_EDGE('',*,*,#347,.T.);
#474=ORIENTED_EDGE('',*,*,#353,.F.);
#475=ORIENTED_EDGE('',*,*,#356,.F.);
#476=ORIENTED_EDGE('',*,*,#344,.T.);
#477=ORIENTED_EDGE('',*,*,#348,.T.);
#478=ORIENTED_EDGE('',*,*,#357,.T.);
#479=ORIENTED_EDGE('',*,*,#355,.T.);
#480=ORIENTED_EDGE('',*,*,#311,.F.);
#481=ORIENTED_EDGE('',*,*,#318,.T.);
#482=ORIENTED_EDGE('',*,*,#339,.T.);
#483=ORIENTED_EDGE('',*,*,#341,.T.);
#484=ORIENTED_EDGE('',*,*,#343,.T.);
#485=ORIENTED_EDGE('',*,*,#328,.T.);
#486=ORIENTED_EDGE('',*,*,#331,.T.);
#487=ORIENTED_EDGE('',*,*,#333,.T.);
#488=ORIENTED_EDGE('',*,*,#335,.T.);
#489=ORIENTED_EDGE('',*,*,#337,.T.);
#490=ORIENTED_EDGE('',*,*,#352,.T.);
#491=ORIENTED_EDGE('',*,*,#358,.T.);
#492=ORIENTED_EDGE('',*,*,#359,.T.);
#493=ORIENTED_EDGE('',*,*,#360,.T.);
#494=ORIENTED_EDGE('',*,*,#361,.T.);
#495=ORIENTED_EDGE('',*,*,#362,.T.);
#496=ORIENTED_EDGE('',*,*,#363,.T.);
#497=ORIENTED_EDGE('',*,*,#364,.T.);
#498=ORIENTED_EDGE('',*,*,#365,.T.);
#499=ORIENTED_EDGE('',*,*,#358,.F.);
#500=ORIENTED_EDGE('',*,*,#366,.T.);
#501=ORIENTED_EDGE('',*,*,#362,.F.);
#502=ORIENTED_EDGE('',*,*,#367,.F.);
#503=ORIENTED_EDGE('',*,*,#361,.F.);
#504=ORIENTED_EDGE('',*,*,#368,.T.);
#505=ORIENTED_EDGE('',*,*,#363,.F.);
#506=ORIENTED_EDGE('',*,*,#366,.F.);
#507=ORIENTED_EDGE('',*,*,#360,.F.);
#508=ORIENTED_EDGE('',*,*,#369,.T.);
#509=ORIENTED_EDGE('',*,*,#364,.F.);
#510=ORIENTED_EDGE('',*,*,#368,.F.);
#511=ORIENTED_EDGE('',*,*,#359,.F.);
#512=ORIENTED_EDGE('',*,*,#367,.T.);
#513=ORIENTED_EDGE('',*,*,#365,.F.);
#514=ORIENTED_EDGE('',*,*,#369,.F.);
#515=ORIENTED_EDGE('',*,*,#370,.F.);
#516=ORIENTED_EDGE('',*,*,#371,.T.);
#517=ORIENTED_EDGE('',*,*,#372,.T.);
#518=ORIENTED_EDGE('',*,*,#373,.F.);
#519=ORIENTED_EDGE('',*,*,#374,.T.);
#520=ORIENTED_EDGE('',*,*,#375,.T.);
#521=ORIENTED_EDGE('',*,*,#376,.F.);
#522=ORIENTED_EDGE('',*,*,#372,.F.);
#523=ORIENTED_EDGE('',*,*,#370,.T.);
#524=ORIENTED_EDGE('',*,*,#377,.F.);
#525=ORIENTED_EDGE('',*,*,#375,.F.);
#526=ORIENTED_EDGE('',*,*,#378,.T.);
#527=ORIENTED_EDGE('',*,*,#377,.T.);
#528=ORIENTED_EDGE('',*,*,#373,.T.);
#529=ORIENTED_EDGE('',*,*,#376,.T.);
#530=ORIENTED_EDGE('',*,*,#378,.F.);
#531=ORIENTED_EDGE('',*,*,#374,.F.);
#532=ORIENTED_EDGE('',*,*,#371,.F.);
#533=ORIENTED_EDGE('',*,*,#379,.T.);
#534=ORIENTED_EDGE('',*,*,#380,.T.);
#535=ORIENTED_EDGE('',*,*,#381,.T.);
#536=ORIENTED_EDGE('',*,*,#382,.T.);
#537=ORIENTED_EDGE('',*,*,#383,.T.);
#538=ORIENTED_EDGE('',*,*,#384,.T.);
#539=ORIENTED_EDGE('',*,*,#385,.T.);
#540=ORIENTED_EDGE('',*,*,#386,.T.);
#541=ORIENTED_EDGE('',*,*,#379,.F.);
#542=ORIENTED_EDGE('',*,*,#387,.T.);
#543=ORIENTED_EDGE('',*,*,#383,.F.);
#544=ORIENTED_EDGE('',*,*,#388,.F.);
#545=ORIENTED_EDGE('',*,*,#382,.F.);
#546=ORIENTED_EDGE('',*,*,#389,.T.);
#547=ORIENTED_EDGE('',*,*,#384,.F.);
#548=ORIENTED_EDGE('',*,*,#387,.F.);
#549=ORIENTED_EDGE('',*,*,#381,.F.);
#550=ORIENTED_EDGE('',*,*,#390,.T.);
#551=ORIENTED_EDGE('',*,*,#385,.F.);
#552=ORIENTED_EDGE('',*,*,#389,.F.);
#553=ORIENTED_EDGE('',*,*,#380,.F.);
#554=ORIENTED_EDGE('',*,*,#388,.T.);
#555=ORIENTED_EDGE('',*,*,#386,.F.);
#556=ORIENTED_EDGE('',*,*,#390,.F.);
#557=PLANE('',#639);
#558=PLANE('',#640);
#559=PLANE('',#641);
#560=PLANE('',#642);
#561=PLANE('',#644);
#562=PLANE('',#647);
#563=PLANE('',#648);
#564=PLANE('',#649);
#565=PLANE('',#650);
#566=PLANE('',#651);
#567=PLANE('',#652);
#568=PLANE('',#653);
#569=PLANE('',#654);
#570=PLANE('',#655);
#571=PLANE('',#656);
#572=PLANE('',#657);
#573=PLANE('',#658);
#574=PLANE('',#659);
#575=PLANE('',#661);
#576=PLANE('',#663);
#577=PLANE('',#664);
#578=PLANE('',#666);
#579=PLANE('',#670);
#580=PLANE('',#674);
#581=PLANE('',#675);
#582=PLANE('',#676);
#583=PLANE('',#678);
#584=PLANE('',#681);
#585=PLANE('',#682);
#586=PLANE('',#683);
#587=ADVANCED_FACE('',(#36),#557,.T.);
#588=ADVANCED_FACE('',(#37),#558,.T.);
#589=ADVANCED_FACE('',(#38),#559,.T.);
#590=ADVANCED_FACE('',(#39),#560,.T.);
#591=ADVANCED_FACE('',(#40),#561,.T.);
#592=ADVANCED_FACE('',(#41),#21,.F.);
#593=ADVANCED_FACE('',(#42),#562,.T.);
#594=ADVANCED_FACE('',(#43),#563,.T.);
#595=ADVANCED_FACE('',(#44),#564,.T.);
#596=ADVANCED_FACE('',(#45),#565,.T.);
#597=ADVANCED_FACE('',(#46),#566,.T.);
#598=ADVANCED_FACE('',(#47),#567,.T.);
#599=ADVANCED_FACE('',(#48),#568,.T.);
#600=ADVANCED_FACE('',(#49),#569,.T.);
#601=ADVANCED_FACE('',(#50),#570,.T.);
#602=ADVANCED_FACE('',(#51),#571,.T.);
#603=ADVANCED_FACE('',(#52),#572,.T.);
#604=ADVANCED_FACE('',(#53),#573,.F.);
#605=ADVANCED_FACE('',(#54),#574,.F.);
#606=ADVANCED_FACE('',(#55),#575,.T.);
#607=ADVANCED_FACE('',(#56),#576,.T.);
#608=ADVANCED_FACE('',(#57),#577,.T.);
#609=ADVANCED_FACE('',(#58),#22,.F.);
#610=ADVANCED_FACE('',(#59),#578,.T.);
#611=ADVANCED_FACE('',(#60),#23,.T.);
#612=ADVANCED_FACE('',(#61),#579,.T.);
#613=ADVANCED_FACE('',(#62),#24,.T.);
#614=ADVANCED_FACE('',(#63),#580,.T.);
#615=ADVANCED_FACE('',(#64),#581,.F.);
#616=ADVANCED_FACE('',(#65),#582,.F.);
#617=ADVANCED_FACE('',(#66),#583,.T.);
#618=ADVANCED_FACE('',(#67),#25,.F.);
#619=ADVANCED_FACE('',(#68),#584,.T.);
#620=ADVANCED_FACE('',(#69),#585,.T.);
#621=ADVANCED_FACE('',(#70),#586,.T.);
#622=CLOSED_SHELL('',(#587,#588,#589,#590,#591,#592,#593,#594,#595,#596,
#597,#598,#599,#600,#601,#602,#603,#604));
#623=CLOSED_SHELL('',(#605,#606,#607,#608,#609,#610));
#624=CLOSED_SHELL('',(#611,#612,#613,#614,#615));
#625=CLOSED_SHELL('',(#616,#617,#618,#619,#620,#621));
#626=DERIVED_UNIT_ELEMENT(#628,1.);
#627=DERIVED_UNIT_ELEMENT(#1029,-3.);
#628=(
MASS_UNIT()
NAMED_UNIT(*)
SI_UNIT(.KILO.,.GRAM.)
);
#629=DERIVED_UNIT((#626,#627));
#630=MEASURE_REPRESENTATION_ITEM('density measure',
POSITIVE_RATIO_MEASURE(7850.),#629);
#631=PROPERTY_DEFINITION_REPRESENTATION(#636,#633);
#632=PROPERTY_DEFINITION_REPRESENTATION(#637,#634);
#633=REPRESENTATION('material name',(#635),#1026);
#634=REPRESENTATION('density',(#630),#1026);
#635=DESCRIPTIVE_REPRESENTATION_ITEM('A\X\E7o','A\X\E7o');
#636=PROPERTY_DEFINITION('material property','material name',#1036);
#637=PROPERTY_DEFINITION('material property','density of part',#1036);
#638=AXIS2_PLACEMENT_3D('',#849,#684,#685);
#639=AXIS2_PLACEMENT_3D('',#850,#686,#687);
#640=AXIS2_PLACEMENT_3D('',#859,#692,#693);
#641=AXIS2_PLACEMENT_3D('',#865,#697,#698);
#642=AXIS2_PLACEMENT_3D('',#873,#703,#704);
#643=AXIS2_PLACEMENT_3D('',#889,#712,#713);
#644=AXIS2_PLACEMENT_3D('',#891,#715,#716);
#645=AXIS2_PLACEMENT_3D('',#897,#720,#721);
#646=AXIS2_PLACEMENT_3D('',#899,#722,#723);
#647=AXIS2_PLACEMENT_3D('',#901,#725,#726);
#648=AXIS2_PLACEMENT_3D('',#905,#729,#730);
#649=AXIS2_PLACEMENT_3D('',#909,#733,#734);
#650=AXIS2_PLACEMENT_3D('',#913,#737,#738);
#651=AXIS2_PLACEMENT_3D('',#917,#741,#742);
#652=AXIS2_PLACEMENT_3D('',#921,#745,#746);
#653=AXIS2_PLACEMENT_3D('',#923,#748,#749);
#654=AXIS2_PLACEMENT_3D('',#936,#756,#757);
#655=AXIS2_PLACEMENT_3D('',#941,#761,#762);
#656=AXIS2_PLACEMENT_3D('',#945,#765,#766);
#657=AXIS2_PLACEMENT_3D('',#949,#769,#770);
#658=AXIS2_PLACEMENT_3D('',#951,#772,#773);
#659=AXIS2_PLACEMENT_3D('',#952,#774,#775);
#660=AXIS2_PLACEMENT_3D('',#959,#778,#779);
#661=AXIS2_PLACEMENT_3D('',#961,#781,#782);
#662=AXIS2_PLACEMENT_3D('',#968,#785,#786);
#663=AXIS2_PLACEMENT_3D('',#970,#788,#789);
#664=AXIS2_PLACEMENT_3D('',#973,#792,#793);
#665=AXIS2_PLACEMENT_3D('',#975,#795,#796);
#666=AXIS2_PLACEMENT_3D('',#977,#798,#799);
#667=AXIS2_PLACEMENT_3D('',#978,#800,#801);
#668=AXIS2_PLACEMENT_3D('',#983,#803,#804);
#669=AXIS2_PLACEMENT_3D('',#986,#806,#807);
#670=AXIS2_PLACEMENT_3D('',#987,#808,#809);
#671=AXIS2_PLACEMENT_3D('',#993,#813,#814);
#672=AXIS2_PLACEMENT_3D('',#994,#815,#816);
#673=AXIS2_PLACEMENT_3D('',#995,#817,#818);
#674=AXIS2_PLACEMENT_3D('',#996,#819,#820);
#675=AXIS2_PLACEMENT_3D('',#997,#821,#822);
#676=AXIS2_PLACEMENT_3D('',#998,#823,#824);
#677=AXIS2_PLACEMENT_3D('',#1001,#825,#826);
#678=AXIS2_PLACEMENT_3D('',#1007,#830,#831);
#679=AXIS2_PLACEMENT_3D('',#1010,#832,#833);
#680=AXIS2_PLACEMENT_3D('',#1016,#837,#838);
#681=AXIS2_PLACEMENT_3D('',#1019,#841,#842);
#682=AXIS2_PLACEMENT_3D('',#1021,#844,#845);
#683=AXIS2_PLACEMENT_3D('',#1023,#847,#848);
#684=DIRECTION('axis',(0.,0.,1.));
#685=DIRECTION('refdir',(1.,0.,0.));
#686=DIRECTION('center_axis',(0.,1.,0.));
#687=DIRECTION('ref_axis',(-1.,0.,0.));
#688=DIRECTION('',(0.,0.,-1.));
#689=DIRECTION('',(-1.,0.,0.));
#690=DIRECTION('',(0.,0.,1.));
#691=DIRECTION('',(-1.,0.,0.));
#692=DIRECTION('center_axis',(0.,0.,1.));
#693=DIRECTION('ref_axis',(1.,0.,0.));
#694=DIRECTION('',(0.,1.,0.));
#695=DIRECTION('',(1.,0.,0.));
#696=DIRECTION('',(0.,-1.,0.));
#697=DIRECTION('center_axis',(-1.,0.,0.));
#698=DIRECTION('ref_axis',(0.,-1.,0.));
#699=DIRECTION('',(0.,0.,1.));
#700=DIRECTION('',(0.,-1.,0.));
#701=DIRECTION('',(0.,0.,1.));
#702=DIRECTION('',(0.,1.,0.));
#703=DIRECTION('center_axis',(0.,0.,1.));
#704=DIRECTION('ref_axis',(1.,0.,0.));
#705=DIRECTION('',(-1.,0.,0.));
#706=DIRECTION('',(0.,1.,0.));
#707=DIRECTION('',(-1.,0.,0.));
#708=DIRECTION('',(1.,0.,0.));
#709=DIRECTION('',(0.,1.,0.));
#710=DIRECTION('',(1.,0.,0.));
#711=DIRECTION('',(0.,1.,0.));
#712=DIRECTION('center_axis',(0.,0.,-1.));
#713=DIRECTION('ref_axis',(1.,0.,0.));
#714=DIRECTION('',(0.,1.,0.));
#715=DIRECTION('center_axis',(1.,0.,0.));
#716=DIRECTION('ref_axis',(0.,1.,0.));
#717=DIRECTION('',(0.,-1.,0.));
#718=DIRECTION('',(0.,0.,1.));
#719=DIRECTION('',(0.,0.,1.));
#720=DIRECTION('center_axis',(0.,0.,1.));
#721=DIRECTION('ref_axis',(-1.,1.22464679914735E-16,0.));
#722=DIRECTION('center_axis',(0.,0.,1.));
#723=DIRECTION('ref_axis',(1.,0.,0.));
#724=DIRECTION('',(0.,0.,1.));
#725=DIRECTION('center_axis',(1.,0.,0.));
#726=DIRECTION('ref_axis',(0.,1.,0.));
#727=DIRECTION('',(0.,-1.,0.));
#728=DIRECTION('',(0.,0.,1.));
#729=DIRECTION('center_axis',(0.,-1.,0.));
#730=DIRECTION('ref_axis',(1.,0.,0.));
#731=DIRECTION('',(-1.,0.,0.));
#732=DIRECTION('',(0.,0.,1.));
#733=DIRECTION('center_axis',(1.,0.,0.));
#734=DIRECTION('ref_axis',(0.,1.,0.));
#735=DIRECTION('',(0.,-1.,0.));
#736=DIRECTION('',(0.,0.,1.));
#737=DIRECTION('center_axis',(0.,1.,0.));
#738=DIRECTION('ref_axis',(-1.,0.,0.));
#739=DIRECTION('',(1.,0.,0.));
#740=DIRECTION('',(0.,0.,1.));
#741=DIRECTION('center_axis',(1.,0.,0.));
#742=DIRECTION('ref_axis',(0.,1.,0.));
#743=DIRECTION('',(0.,-1.,0.));
#744=DIRECTION('',(0.,0.,1.));
#745=DIRECTION('center_axis',(0.,1.,0.));
#746=DIRECTION('ref_axis',(-1.,0.,0.));
#747=DIRECTION('',(1.,0.,0.));
#748=DIRECTION('center_axis',(-1.,0.,0.));
#749=DIRECTION('ref_axis',(0.,-1.,0.));
#750=DIRECTION('',(0.,1.,0.));
#751=DIRECTION('',(0.,0.,1.));
#752=DIRECTION('',(0.,-1.,0.));
#753=DIRECTION('',(0.,0.,1.));
#754=DIRECTION('',(0.,1.,0.));
#755=DIRECTION('',(0.,0.,1.));
#756=DIRECTION('center_axis',(0.,-1.,0.));
#757=DIRECTION('ref_axis',(1.,0.,0.));
#758=DIRECTION('',(0.,0.,1.));
#759=DIRECTION('',(1.,0.,0.));
#760=DIRECTION('',(-1.,0.,0.));
#761=DIRECTION('center_axis',(0.,0.,1.));
#762=DIRECTION('ref_axis',(1.,0.,0.));
#763=DIRECTION('',(-1.,0.,0.));
#764=DIRECTION('',(0.,1.,0.));
#765=DIRECTION('center_axis',(1.,0.,0.));
#766=DIRECTION('ref_axis',(0.,1.,0.));
#767=DIRECTION('',(0.,-1.,0.));
#768=DIRECTION('',(0.,0.,1.));
#769=DIRECTION('center_axis',(0.,1.,0.));
#770=DIRECTION('ref_axis',(-1.,0.,0.));
#771=DIRECTION('',(1.,0.,0.));
#772=DIRECTION('center_axis',(0.,0.,1.));
#773=DIRECTION('ref_axis',(1.,0.,0.));
#774=DIRECTION('center_axis',(0.,0.,1.));
#775=DIRECTION('ref_axis',(1.,0.,0.));
#776=DIRECTION('',(1.,-1.38777878078144E-16,0.));
#777=DIRECTION('',(0.,-1.,0.));
#778=DIRECTION('center_axis',(0.,0.,1.));
#779=DIRECTION('ref_axis',(1.,0.,0.));
#780=DIRECTION('',(0.,1.,0.));
#781=DIRECTION('center_axis',(0.,0.,1.));
#782=DIRECTION('ref_axis',(1.,0.,0.));
#783=DIRECTION('',(-1.,1.38777878078144E-16,0.));
#784=DIRECTION('',(0.,-1.,0.));
#785=DIRECTION('center_axis',(0.,0.,-1.));
#786=DIRECTION('ref_axis',(1.,0.,0.));
#787=DIRECTION('',(0.,1.,0.));
#788=DIRECTION('center_axis',(1.38777878078144E-16,1.,0.));
#789=DIRECTION('ref_axis',(-1.,1.38777878078144E-16,0.));
#790=DIRECTION('',(0.,0.,1.));
#791=DIRECTION('',(0.,0.,1.));
#792=DIRECTION('center_axis',(-1.,0.,0.));
#793=DIRECTION('ref_axis',(0.,-1.,0.));
#794=DIRECTION('',(0.,0.,1.));
#795=DIRECTION('center_axis',(0.,0.,1.));
#796=DIRECTION('ref_axis',(1.,0.,0.));
#797=DIRECTION('',(0.,0.,1.));
#798=DIRECTION('center_axis',(1.,0.,0.));
#799=DIRECTION('ref_axis',(0.,1.,0.));
#800=DIRECTION('center_axis',(0.,0.,1.));
#801=DIRECTION('ref_axis',(1.,0.,0.));
#802=DIRECTION('',(0.,0.,1.));
#803=DIRECTION('center_axis',(0.,0.,1.));
#804=DIRECTION('ref_axis',(1.,0.,0.));
#805=DIRECTION('',(0.,0.,1.));
#806=DIRECTION('center_axis',(0.,0.,1.));
#807=DIRECTION('ref_axis',(1.,0.,0.));
#808=DIRECTION('center_axis',(-1.,0.,0.));
#809=DIRECTION('ref_axis',(0.,-1.,0.));
#810=DIRECTION('',(0.,-1.,0.));
#811=DIRECTION('',(0.,0.,1.));
#812=DIRECTION('',(0.,-1.,0.));
#813=DIRECTION('center_axis',(0.,0.,1.));
#814=DIRECTION('ref_axis',(1.,0.,0.));
#815=DIRECTION('center_axis',(0.,0.,1.));
#816=DIRECTION('ref_axis',(1.,0.,0.));
#817=DIRECTION('center_axis',(0.,0.,1.));
#818=DIRECTION('ref_axis',(1.,0.,0.));
#819=DIRECTION('center_axis',(0.,0.,1.));
#820=DIRECTION('ref_axis',(1.,0.,0.));
#821=DIRECTION('center_axis',(0.,0.,1.));
#822=DIRECTION('ref_axis',(1.,0.,0.));
#823=DIRECTION('center_axis',(0.,0.,1.));
#824=DIRECTION('ref_axis',(1.,0.,0.));
#825=DIRECTION('center_axis',(0.,0.,1.));
#826=DIRECTION('ref_axis',(1.,0.,0.));
#827=DIRECTION('',(0.,-1.,0.));
#828=DIRECTION('',(-1.,0.,0.));
#829=DIRECTION('',(0.,1.,0.));
#830=DIRECTION('center_axis',(0.,0.,1.));
#831=DIRECTION('ref_axis',(1.,0.,0.));
#832=DIRECTION('center_axis',(0.,0.,-1.));
#833=DIRECTION('ref_axis',(1.,0.,0.));
#834=DIRECTION('',(0.,-1.,0.));
#835=DIRECTION('',(1.,0.,0.));
#836=DIRECTION('',(0.,1.,0.));
#837=DIRECTION('center_axis',(0.,0.,1.));
#838=DIRECTION('ref_axis',(1.,0.,0.));
#839=DIRECTION('',(0.,0.,1.));
#840=DIRECTION('',(0.,0.,1.));
#841=DIRECTION('center_axis',(-1.,0.,0.));
#842=DIRECTION('ref_axis',(0.,-1.,0.));
#843=DIRECTION('',(0.,0.,1.));
#844=DIRECTION('center_axis',(0.,-1.,0.));
#845=DIRECTION('ref_axis',(1.,0.,0.));
#846=DIRECTION('',(0.,0.,1.));
#847=DIRECTION('center_axis',(1.,0.,0.));
#848=DIRECTION('ref_axis',(0.,1.,0.));
#849=CARTESIAN_POINT('',(0.,0.,0.));
#850=CARTESIAN_POINT('Origin',(8.8999998010695,-10.4999997653067,0.));
#851=CARTESIAN_POINT('',(-7.3,-10.4999997653067,1.));
#852=CARTESIAN_POINT('',(-7.3,-10.4999997653067,0.));
#853=CARTESIAN_POINT('',(-7.3,-10.4999997653067,0.));
#854=CARTESIAN_POINT('',(7.4,-10.4999997653067,1.));
#855=CARTESIAN_POINT('',(8.8999998010695,-10.4999997653067,1.));
#856=CARTESIAN_POINT('',(7.4,-10.4999997653067,0.));
#857=CARTESIAN_POINT('',(7.4,-10.4999997653067,0.));
#858=CARTESIAN_POINT('',(8.8999998010695,-10.4999997653067,0.));
#859=CARTESIAN_POINT('Origin',(0.0499999988824129,-10.5999997630715,1.));
#860=CARTESIAN_POINT('',(-7.3,-10.6999997608364,1.));
#861=CARTESIAN_POINT('',(-7.3,-10.6499998815358,1.));
#862=CARTESIAN_POINT('',(7.4,-10.6999997608364,1.));
#863=CARTESIAN_POINT('',(-8.79999980330467,-10.6999997608364,1.));
#864=CARTESIAN_POINT('',(7.4,-1.64999988153577,1.));
#865=CARTESIAN_POINT('Origin',(7.4,7.3,0.));
#866=CARTESIAN_POINT('',(7.4,-10.7,5.));
#867=CARTESIAN_POINT('',(7.4,-10.7,0.));
#868=CARTESIAN_POINT('',(7.4,7.3,5.));
#869=CARTESIAN_POINT('',(7.4,-10.7,5.));
#870=CARTESIAN_POINT('',(7.4,7.3,0.));
#871=CARTESIAN_POINT('',(7.4,7.3,0.));
#872=CARTESIAN_POINT('',(7.4,-10.7,0.));
#873=CARTESIAN_POINT('Origin',(8.625,-1.7,5.));
#874=CARTESIAN_POINT('',(9.85,-0.600000000000001,5.));
#875=CARTESIAN_POINT('',(8.9,-0.600000000000001,5.));
#876=CARTESIAN_POINT('',(8.85,-0.600000000000001,5.));
#877=CARTESIAN_POINT('',(8.9,7.3,5.));
#878=CARTESIAN_POINT('',(8.9,7.3,5.));
#879=CARTESIAN_POINT('',(7.4,7.3,5.));
#880=CARTESIAN_POINT('',(8.9,-10.7,5.));
#881=CARTESIAN_POINT('',(8.9,-10.7,5.));
#882=CARTESIAN_POINT('',(8.9,-7.7,5.));
#883=CARTESIAN_POINT('',(8.9,7.3,5.));
#884=CARTESIAN_POINT('',(9.85,-7.7,5.));
#885=CARTESIAN_POINT('',(9.85,-7.7,5.));
#886=CARTESIAN_POINT('',(9.85,-5.54552857369529,5.));
#887=CARTESIAN_POINT('',(9.85,-0.600000000000001,5.));
#888=CARTESIAN_POINT('',(9.85,-2.75447142630471,5.));
#889=CARTESIAN_POINT('Origin',(10.4,-4.15,5.));
#890=CARTESIAN_POINT('',(9.85,-0.600000000000001,5.));
#891=CARTESIAN_POINT('Origin',(9.85,-2.75447142630471,0.));
#892=CARTESIAN_POINT('',(9.85,-0.600000000000001,0.));
#893=CARTESIAN_POINT('',(9.85,-2.75447142630471,0.));
#894=CARTESIAN_POINT('',(9.85,-0.600000000000001,0.));
#895=CARTESIAN_POINT('',(9.85,-0.600000000000001,0.));
#896=CARTESIAN_POINT('',(9.85,-2.75447142630471,0.));
#897=CARTESIAN_POINT('Origin',(10.4,-4.15,0.));
#898=CARTESIAN_POINT('',(9.85,-5.54552857369529,0.));
#899=CARTESIAN_POINT('Origin',(10.4,-4.15,0.));
#900=CARTESIAN_POINT('',(9.85,-5.54552857369529,0.));
#901=CARTESIAN_POINT('Origin',(9.85,-7.7,0.));
#902=CARTESIAN_POINT('',(9.85,-7.7,0.));
#903=CARTESIAN_POINT('',(9.85,-0.600000000000001,0.));
#904=CARTESIAN_POINT('',(9.85,-7.7,0.));
#905=CARTESIAN_POINT('Origin',(8.9,-7.7,0.));
#906=CARTESIAN_POINT('',(8.9,-7.7,0.));
#907=CARTESIAN_POINT('',(9.85,-7.7,0.));
#908=CARTESIAN_POINT('',(8.9,-7.7,0.));
#909=CARTESIAN_POINT('Origin',(8.9,-10.7,0.));
#910=CARTESIAN_POINT('',(8.9,-10.7,0.));
#911=CARTESIAN_POINT('',(8.9,7.3,0.));
#912=CARTESIAN_POINT('',(8.9,-10.7,0.));
#913=CARTESIAN_POINT('Origin',(8.9,7.3,0.));
#914=CARTESIAN_POINT('',(8.9,7.3,0.));
#915=CARTESIAN_POINT('',(7.4,7.3,0.));
#916=CARTESIAN_POINT('',(8.9,7.3,0.));
#917=CARTESIAN_POINT('Origin',(8.9,-0.600000000000001,0.));
#918=CARTESIAN_POINT('',(8.9,-0.600000000000001,0.));
#919=CARTESIAN_POINT('',(8.9,7.3,0.));
#920=CARTESIAN_POINT('',(8.9,-0.600000000000001,0.));
#921=CARTESIAN_POINT('Origin',(9.85,-0.600000000000001,0.));
#922=CARTESIAN_POINT('',(8.85,-0.600000000000001,0.));
#923=CARTESIAN_POINT('Origin',(-8.8,7.3,0.));
#924=CARTESIAN_POINT('',(-8.8,-10.7,0.));
#925=CARTESIAN_POINT('',(-8.8,-4.15,0.));
#926=CARTESIAN_POINT('',(-8.8,-10.7,0.));
#927=CARTESIAN_POINT('',(-8.8,-10.7,5.));
#928=CARTESIAN_POINT('',(-8.8,-10.7,0.));
#929=CARTESIAN_POINT('',(-8.8,7.3,5.));
#930=CARTESIAN_POINT('',(-8.8,-10.7,5.));
#931=CARTESIAN_POINT('',(-8.8,7.3,0.));
#932=CARTESIAN_POINT('',(-8.8,7.3,0.));
#933=CARTESIAN_POINT('',(-8.8,-10.7,0.));
#934=CARTESIAN_POINT('',(-8.8,-4.15,1.));
#935=CARTESIAN_POINT('',(-8.8,-4.15,0.));
#936=CARTESIAN_POINT('Origin',(-8.8,-10.7,0.));
#937=CARTESIAN_POINT('',(-7.3,-10.7,5.));
#938=CARTESIAN_POINT('',(-7.3,-10.7,0.));
#939=CARTESIAN_POINT('',(-7.3,-10.7,5.));
#940=CARTESIAN_POINT('',(-7.3,-10.7,0.));
#941=CARTESIAN_POINT('Origin',(-8.05,-1.7,5.));
#942=CARTESIAN_POINT('',(-7.3,7.3,5.));
#943=CARTESIAN_POINT('',(-8.8,7.3,5.));
#944=CARTESIAN_POINT('',(-7.3,7.3,5.));
#945=CARTESIAN_POINT('Origin',(-7.3,-10.7,0.));
#946=CARTESIAN_POINT('',(-7.3,7.3,0.));
#947=CARTESIAN_POINT('',(-7.3,7.3,0.));
#948=CARTESIAN_POINT('',(-7.3,7.3,0.));
#949=CARTESIAN_POINT('Origin',(-7.3,7.3,0.));
#950=CARTESIAN_POINT('',(-8.8,7.3,0.));
#951=CARTESIAN_POINT('Origin',(-8.05,-1.7,0.));
#952=CARTESIAN_POINT('Origin',(-9.35,-2.18297135630329,0.));
#953=CARTESIAN_POINT('',(-9.85,-0.600000000000001,0.));
#954=CARTESIAN_POINT('',(-8.85,-0.600000000000001,0.));
#955=CARTESIAN_POINT('',(-9.85,-0.6,0.));
#956=CARTESIAN_POINT('',(-8.85,-3.76594271260658,0.));
#957=CARTESIAN_POINT('',(-8.85,-0.600000000000001,0.));
#958=CARTESIAN_POINT('',(-9.85,-2.71909119787458,0.));
#959=CARTESIAN_POINT('Origin',(-10.3,-4.15,0.));
#960=CARTESIAN_POINT('',(-9.85,-7.7,0.));
#961=CARTESIAN_POINT('Origin',(-9.35,-2.18297135630329,1.));
#962=CARTESIAN_POINT('',(-8.85,-0.600000000000001,1.));
#963=CARTESIAN_POINT('',(-9.85,-0.600000000000001,1.));
#964=CARTESIAN_POINT('',(-9.85,-0.6,1.));
#965=CARTESIAN_POINT('',(-9.85,-2.71909119787458,1.));
#966=CARTESIAN_POINT('',(-9.85,-7.7,1.));
#967=CARTESIAN_POINT('',(-8.85,-3.76594271260658,1.));
#968=CARTESIAN_POINT('Origin',(-10.3,-4.15,1.));
#969=CARTESIAN_POINT('',(-8.85,-0.600000000000001,1.));
#970=CARTESIAN_POINT('Origin',(-8.85,-0.600000000000001,0.));
#971=CARTESIAN_POINT('',(-9.85,-0.600000000000001,0.));
#972=CARTESIAN_POINT('',(-8.85,-0.600000000000001,0.));
#973=CARTESIAN_POINT('Origin',(-9.85,-0.600000000000001,0.));
#974=CARTESIAN_POINT('',(-9.85,-2.71909119787458,0.));
#975=CARTESIAN_POINT('Origin',(-10.3,-4.15,0.));
#976=CARTESIAN_POINT('',(-8.85,-3.76594271260658,0.));
#977=CARTESIAN_POINT('Origin',(-8.85,-3.76594271260658,0.));
#978=CARTESIAN_POINT('Origin',(-10.3,-4.15,0.));
#979=CARTESIAN_POINT('',(-8.8,-4.15,0.));
#980=CARTESIAN_POINT('',(-8.8,-4.15,1.));
#981=CARTESIAN_POINT('',(-8.8,-4.15,0.));
#982=CARTESIAN_POINT('',(-8.85,-3.76594271260658,0.));
#983=CARTESIAN_POINT('Origin',(-10.3,-4.15,0.));
#984=CARTESIAN_POINT('',(-8.85,-3.76594271260658,1.));
#985=CARTESIAN_POINT('',(-8.85,-3.76594271260658,0.));
#986=CARTESIAN_POINT('Origin',(-10.3,-4.15,1.));
#987=CARTESIAN_POINT('Origin',(-8.85,-3.76594271260658,0.));
#988=CARTESIAN_POINT('',(-8.85,-4.53405728739342,0.));
#989=CARTESIAN_POINT('',(-8.85,-0.600000000000001,0.));
#990=CARTESIAN_POINT('',(-8.85,-4.53405728739342,1.));
#991=CARTESIAN_POINT('',(-8.85,-4.53405728739342,0.));
#992=CARTESIAN_POINT('',(-8.85,-0.600000000000001,1.));
#993=CARTESIAN_POINT('Origin',(-10.3,-4.15,0.));
#994=CARTESIAN_POINT('Origin',(-10.3,-4.15,1.));
#995=CARTESIAN_POINT('Origin',(-10.3,-4.15,0.));
#996=CARTESIAN_POINT('Origin',(-8.825,-4.15,1.));
#997=CARTESIAN_POINT('Origin',(-8.825,-4.15,0.));
#998=CARTESIAN_POINT('Origin',(-9.35,-6.11702864369671,0.));
#999=CARTESIAN_POINT('',(-9.85,-5.58090880212542,0.));
#1000=CARTESIAN_POINT('',(-8.85,-4.53405728739342,0.));
#1001=CARTESIAN_POINT('Origin',(-10.3,-4.15,0.));
#1002=CARTESIAN_POINT('',(-8.85,-7.7,0.));
#1003=CARTESIAN_POINT('',(-8.85,-0.600000000000001,0.));
#1004=CARTESIAN_POINT('',(-9.85,-7.7,0.));
#1005=CARTESIAN_POINT('',(-8.85,-7.7,0.));
#1006=CARTESIAN_POINT('',(-9.85,-7.7,0.));
#1007=CARTESIAN_POINT('Origin',(-9.35,-6.11702864369671,1.));
#1008=CARTESIAN_POINT('',(-8.85,-4.53405728739342,1.));
#1009=CARTESIAN_POINT('',(-9.85,-5.58090880212542,1.));
#1010=CARTESIAN_POINT('Origin',(-10.3,-4.15,1.));
#1011=CARTESIAN_POINT('',(-9.85,-7.7,1.));
#1012=CARTESIAN_POINT('',(-9.85,-7.7,1.));
#1013=CARTESIAN_POINT('',(-8.85,-7.7,1.));
#1014=CARTESIAN_POINT('',(-8.85,-7.7,1.));
#1015=CARTESIAN_POINT('',(-8.85,-0.600000000000001,1.));
#1016=CARTESIAN_POINT('Origin',(-10.3,-4.15,0.));
#1017=CARTESIAN_POINT('',(-9.85,-5.58090880212542,0.));
#1018=CARTESIAN_POINT('',(-8.85,-4.53405728739342,0.));
#1019=CARTESIAN_POINT('Origin',(-9.85,-5.58090880212542,0.));
#1020=CARTESIAN_POINT('',(-9.85,-7.7,0.));
#1021=CARTESIAN_POINT('Origin',(-9.85,-7.7,0.));
#1022=CARTESIAN_POINT('',(-8.85,-7.7,0.));
#1023=CARTESIAN_POINT('Origin',(-8.85,-7.7,0.));
#1024=UNCERTAINTY_MEASURE_WITH_UNIT(LENGTH_MEASURE(0.01),#1028,
'DISTANCE_ACCURACY_VALUE',
'Maximum model space distance between geometric entities at asserted c
onnectivities');
#1025=UNCERTAINTY_MEASURE_WITH_UNIT(LENGTH_MEASURE(0.01),#1028,
'DISTANCE_ACCURACY_VALUE',
'Maximum model space distance between geometric entities at asserted c
onnectivities');
#1026=(
GEOMETRIC_REPRESENTATION_CONTEXT(3)
GLOBAL_UNCERTAINTY_ASSIGNED_CONTEXT((#1024))
GLOBAL_UNIT_ASSIGNED_CONTEXT((#1028,#1030,#1031))
REPRESENTATION_CONTEXT('','3D')
);
#1027=(
GEOMETRIC_REPRESENTATION_CONTEXT(3)
GLOBAL_UNCERTAINTY_ASSIGNED_CONTEXT((#1025))
GLOBAL_UNIT_ASSIGNED_CONTEXT((#1028,#1030,#1031))
REPRESENTATION_CONTEXT('','3D')
);
#1028=(
LENGTH_UNIT()
NAMED_UNIT(*)
SI_UNIT(.MILLI.,.METRE.)
);
#1029=(
LENGTH_UNIT()
NAMED_UNIT(*)
SI_UNIT($,.METRE.)
);
#1030=(
NAMED_UNIT(*)
PLANE_ANGLE_UNIT()
SI_UNIT($,.RADIAN.)
);
#1031=(
NAMED_UNIT(*)
SI_UNIT($,.STERADIAN.)
SOLID_ANGLE_UNIT()
);
#1032=SHAPE_DEFINITION_REPRESENTATION(#1033,#1034);
#1033=PRODUCT_DEFINITION_SHAPE('',$,#1036);
#1034=SHAPE_REPRESENTATION('',(#638),#1026);
#1035=PRODUCT_DEFINITION_CONTEXT('part definition',#1040,'design');
#1036=PRODUCT_DEFINITION('Pecas Teclado','Pecas Teclado v8',#1037,#1035);
#1037=PRODUCT_DEFINITION_FORMATION('',$,#1042);
#1038=PRODUCT_RELATED_PRODUCT_CATEGORY('Pecas Teclado v8',
'Pecas Teclado v8',(#1042));
#1039=APPLICATION_PROTOCOL_DEFINITION('international standard',
'automotive_design',2009,#1040);
#1040=APPLICATION_CONTEXT(
'Core Data for Automotive Mechanical Design Process');
#1041=PRODUCT_CONTEXT('part definition',#1040,'mechanical');
#1042=PRODUCT('Pecas Teclado','Pecas Teclado v8',$,(#1041));
#1043=PRESENTATION_STYLE_ASSIGNMENT((#1044));
#1044=SURFACE_STYLE_USAGE(.BOTH.,#1045);
#1045=SURFACE_SIDE_STYLE('',(#1046));
#1046=SURFACE_STYLE_FILL_AREA(#1047);
#1047=FILL_AREA_STYLE('A\X\E7o - Acetinado',(#1048));
#1048=FILL_AREA_STYLE_COLOUR('A\X\E7o - Acetinado',#1049);
#1049=COLOUR_RGB('A\X\E7o - Acetinado',0.627450980392157,0.627450980392157,
0.627450980392157);
ENDSEC;
END-ISO-10303-21;
